<?xml version="1.0" encoding="UTF-8"?>
<svg xmlns="http://www.w3.org/2000/svg" viewBox="0 0 3000 3000">
  <path fill="#ff3b30" d="M1631.8,245.4V59.1h-181.9v186.3c-579.5,44.4-1042.5,506.8-1087,1085.5h-186.5v181.7h186.5c44.4,578.7,507.5,1041.2,1087,1085.5v186.3h181.9v-186.3c579.5-44.4,1042.5-506.8,1087-1085.5h186.5v-181.7h-186.5c-44.4-578.7-507.5-1041.2-1087-1085.5ZM1449.9,427.1v549.6c-177.9,36.2-318.4,176.5-354.7,354.2h-550.4c43.4-478.6,425.8-860.4,905-903.8ZM1449.9,2416.4c-479.2-43.4-861.6-425.3-905-903.8h550.4c36.3,177.7,176.7,318,354.7,354.2v549.6ZM1419,1598.5l72.4-158.5c-32.3-17.6-54.2-51.8-54.2-91.2,0-57.3,46.5-103.8,103.8-103.8s103.8,46.5,103.8,103.8-21.9,73.6-54.2,91.2l72.4,158.5h-243.8ZM1631.8,2416.4v-549.6c177.9-36.2,318.4-176.5,354.7-354.2h550.4c-43.4,478.6-425.8,860.4-905,903.8ZM1986.5,1330.9c-36.3-177.7-176.7-318-354.7-354.2V427.1c479.2,43.4,861.6,425.3,905,903.8h-550.4Z"/>
</svg>