<?xml version="1.0" encoding="UTF-8"?><svg id="Layer_1" xmlns="http://www.w3.org/2000/svg" viewBox="0 0 909.11 575.72"><defs><style>.cls-1{fill:#070707;}.cls-2{fill:#f8f8f9;}.cls-3{fill:#faf9fa;}.cls-4{fill:#010101;}.cls-5{fill:#ff3b30;}.cls-6{fill:#f4f4f5;}.cls-7{fill:#f5f5f6;}.cls-8{fill:#e6e6e6;}.cls-9{fill:#d0d0d0;}.cls-10{fill:#efefef;}.cls-11{fill:#f6f6f7;}.cls-12{fill:#f8f9f9;}.cls-13{fill:#f9fafa;}.cls-14{fill:#e0dfe2;}.cls-15{fill:#babcbd;}.cls-16{fill:#fff;}.cls-17{fill:#f9f9f9;}.cls-18{fill:#f0f0f0;}.cls-19{fill:#e9e9e9;}.cls-20{fill:#f8f8f8;}.cls-21{fill:#f3f3f4;}.cls-22{fill:#252525;}.cls-23{fill:#e3e4e5;}.cls-24{fill:#5c5b5f;}.cls-25{fill:#ededed;}.cls-26{fill:#090909;}.cls-27{fill:#fdfdfd;}</style></defs><path d="M353.07,100.72c-.32-.78-11.23-26.76-25.02-30.28-14.01-3.57-36.49,5.1-47.45,5.46-10.97.36-22.19-3.67-38.76-1.63-16.58,2.04-25.69,28.79-25.69,28.79h0c-76.39,28.95-130.69,102.8-130.69,189.33,0,111.78,90.62,202.4,202.4,202.4s202.4-90.62,202.4-202.4c0-88.97-57.4-164.53-137.19-191.67Z"/><path class="cls-17" d="M213.64,115.82c.55.61-2.79,14.13-3.37,16.02-15.18,7.11-29.37,16.19-42.17,26.98-1.79,1.51-8.57,8.54-9.56,8.99-1.86.85-8.05.19-11.26,1.11-3.82,1.09-6.52,4.28-6.14,8.39.22,2.34,2.99,5.13,2.72,6.14-.2.76-7.86,10.78-9.17,12.82-36.39,56.59-39.76,125.46-7.17,184.74,50.64,92.12,171.28,120.81,259.8,64.51,81.88-52.08,107.83-162.86,55.42-245.36-1.06,3.87-2.73,7.78-5.62,10.68-10.07,10.07-42.12,13.8-32.25,34.51,4.37,9.18,18.48,10.82,21.73,21,4.37,13.71-7.83,21.24-19.55,23.2-.34-1.61.52-.89,1.21-1.29,8.78-5.09,19.14-10.03,13.32-21.96-4.91-10.05-20.19-10.17-21.81-20.92-2.89-19.21,16.12-25.32,28.46-33.31,4.8-3.1,12.65-11.98,10.55-18.08-.66-1.92-6.79-9.59-8.47-11.77-1.12-1.46-8.13-9.18-8.13-9.91,0-.87,5.09-4.12,6.21-5.62,1.43-1.9,1.15-4.44,3.1-3.1,3.96,2.74,11.9,13.79,15.02,18.16,85.37,119.83,13.23,283.01-130.92,303.36-92.42,13.05-181.72-39.27-212.73-127.25-32.34-91.76,9.9-192.72,96.14-235.59,1.4-.7,14.09-7.04,14.63-6.45ZM442.46,197.9c1.4-6.68-1.74-17.2-5.51-22.88-.58-.87-1.05-2.04-2.36-1.85,4.02,6.65,4.86,13.93,6.57,21.26.21.9.4,3.17,1.3,3.47Z"/><path class="cls-2" d="M316.53,75.9c.12,1.46.09.94-.84,1.11-9.89,1.78-19.83,5.96-29.8,6.75-9.95.79-19.71-1.06-29.51-2.23,3.29,3.88,6.26,8.58,6.74,13.78,1.73,18.83-10.91,24.87-18.48,39.42-.34.66-.58,2.26-.71,2.37-.68.56-6.62.53-8,.71-6.9.9-13.69,2.47-20.59,3.3,1.88-8.39,2.9-16.99,4.67-25.4,2.43-11.53,3.76-19.41,12.21-28.27,14.12-14.81,34.81-6.03,52.58-7.02,10.69-.59,21.02-4.27,31.74-4.52ZM253.93,112.24c5.71-5.71,7.67-16.71,1.63-22.87-4.35-4.43-11.13-3.18-10.38,3.61.66,5.96,6.84,8.45,6.14,16.36-.28,3.2-3,8.52,2.62,2.89Z"/><path class="cls-13" d="M354.76,133.81l-35.34-1.76c-.8-1.95-1.2-4.18-2.05-6.1-5.85-13.19-22.53-23.18-13.31-39.19,9.4-16.34,31.25-6.54,37.87,7.88,5.72,12.45,8.76,26.13,12.83,39.17ZM319.9,107.94c.32-.29-2.16-3.55-2.51-4.51-.58-1.57-1.03-3.65-.89-5.32.57-6.58,10.99-8.61-.42-11.36-3.82-.92-6.12-1.45-8.36,2.56-3.82,6.84,1.87,15.55,8.65,17.95.73.26,3.09,1.08,3.52.69Z"/><path class="cls-7" d="M415.48,160.24c-.28.82-2.04,1.61-2.81,1.96-21.89,9.95-50.24,15.63-74.02,19.31-47.41,7.34-89.66,5.8-137.01-.55-8.01-1.08-16.02-2.46-23.97-3.86l5.9-1c38.79,1,79.37,4.19,118.06,1.57s75.72-14.03,113.85-17.42Z"/><path class="cls-13" d="M398.06,302.48c-1.13,2.64-3.46,4.01-4.8,6.73-2.9,5.88-2.13,10.28-.82,16.33-.69-.56-1.72-.81-2.26-1.54s-1.26-4.46-2.23-2.56c-.88,1.73.13,2.13-2.83,1.61-7.7-1.37-18.7-8.57-26.96-10.17-10.11-5.59-25.47-8.65-35.01-14.47-5.98-3.65-1.48-13.64,4.78-13.78,23.22,6.59,46.66,12.26,70.14,17.86Z"/><path class="cls-17" d="M336.06,456.94c-.84.25-2.28,1.13-2.94.17-.61-.89-2.13-9.06-2.83-11.24-4.44-13.75-11.84-27.04-20.49-38.54-.34-.95,1.7-1.27,2.82-2.23.86-.73,2.44-2.25,3.06-3.13.77-1.09.79-3.41,2.17-3.29,2.44.21,14.45,9.39,18.25,11.03,4.86,2.1,7.14,1.36,10.49-2.7l11-20.76c-1.58,24.67-10.82,48.65-21.51,70.68Z"/><path class="cls-3" d="M291.24,419.98c.76,1,1.25-.72,1.46-1.05,1.25-1.99,1.66-4.48,3.32-6.26l1.97,6.74c.81-.09.95-2.46,1.05-3.16.19-1.38.04-2.77.08-4.15,4.13,4.15,5.83,10.5,7.26,16.06,2.62,10.18,3.66,19.84,3.98,30.31.04,1.15,1.23,3.18.02,3.97-.59.39-9.47,1.32-10.97,1.4-2.55.14-19.82.2-20.52-.61.85-13.24,2.09-26.58,5.88-39.33,1.44-4.83,3.2-10.42,6.75-14.05,1.19,1.54-.66,9.62-.28,10.11Z"/><path class="cls-12" d="M234.43,389.07c.08.07.17,1.42.47,2.05,1.86,3.98,9.21,18.41,13.02,19.61,2.54.8,4.69.04,6.99-.94,6.12-2.62,12.42-8.34,18.65-11.15l1.94,3.64,5.04,4.56c-11.95,15.27-18.22,31.5-22.88,50.13-.29,1.17.07,3.94-1.41,1.65-2.09-3.24-4.47-9.21-6.15-12.95-7.5-16.71-15.17-37.02-17.27-55.26-.17-1.45.71-2.07,1.61-1.33Z"/><path class="cls-2" d="M282.24,253c.06-.12.81-.27,1.01-.93.97-3.24-1.37-7.47-.96-11.1.21-1.84,2.89-10.65,4.16-11.59,1.9-1.41,5.49-1.32,7.75-.98,4.64.71,3.25,2.82,4.51,6.17.66,1.73,2.4,4.9,2.62,6.38.62,4.18-2.18,6.79.03,10.93.53.99.67,1.02,1.12,1.69l1.13,8.99c1.17-.63,1.4-2.84,2.41-3.76,3.87-3.52,9.17,2.08,8.7,6.69-.21,2.07-4.29,9.52-6.06,7.75-.22-.22,2.61-5.61-.77-5.01-1.6.28-6.38,8.91-10.48,10.07v-1.69c.97-.61,2.86-2.16,3.1-3.36-3.61,2.31-8.05,3.19-12.1,1.4-1.78-.79-2.83-2.82-5.05-2.53.38.85,1.27,1.64,1.98,2.23.54.45,4.49,3.28,4.77,3.39.14,1.72-.53,1.07-1.57.74-4.82-1.52-8.26-9.2-11.2-9.65-3.79-.58.65,5.48-2.97,3.57-4-2.1-5.15-11.88-.42-13.91,4.11-1.77,5.16,1.96,7.72,4.07-.43-3.24.52-6.44.57-9.56Z"/><path class="cls-2" d="M268.18,368.83c1.61,1.88-3.57.55-4.19.53-4.72-.17-18.8-.67-22.23,2-3.25,2.53-.47,10.27-.54,14.03-.02,1.15.35,1.65-1.14,1.42-6.33-17.11-9.61-35.42-10.71-53.67-.42-6.95-.39-14.17.03-21.1.85.14,1.34,1.79,1.68,2.53,10.61,22.92,14.05,36.19,34.67,53.04.7.57,2.34,1.12,2.43,1.23Z"/><path class="cls-12" d="M419.42,152.92l-17.57,1.6c-12.25-9.46-25.47-17.7-39.74-23.83-.73-.33-.87-.99-1.18-1.63-.52-1.09-5.02-14.38-4.47-14.92,1.42-1.41,31.04,14.32,34.47,16.41,8.92,5.46,19.89,13.17,27.38,20.4.61.59,1.31.99,1.11,1.97Z"/><path class="cls-20" d="M348.58,387.37c-.29-.31,1.5-6.68,1.61-8.22.4-5.57.77-8.52-5.41-9.62-7.55-1.35-14.61.1-22.06-.42,12.79-9.6,21.44-21.61,28.03-36.07,1.26-2.77,2.27-7.02,3.55-9.38.76-1.39,2.99-.67,3.56.18.31.46.75,3.4.83,4.23,1.25,13.41-1.86,44.81-7.76,56.88-.21.44-1.49,3.34-2.35,2.42Z"/><path class="cls-21" d="M221.51,286.74c.25.3.07,1.76-.37,2.29-1.71,2.06-6.65,5.43-8.93,7.8-18.55,19.37-33.16,42.6-48.6,64.41-.43,1.1,1.86,1.19,2.6,1.32,7.21,1.24,14.63,1.57,21.84,2.91.71.13,1.78.15.85,1.1-.26.26-6.23,3.18-6.59,3.25-4.01.83-19.77-1.33-24.46-2.27-7.64-1.52-5.94-3.07-2.35-8.24,13.39-19.28,34.09-46.76,51.39-62.18,1.25-1.11,13.82-11.33,14.62-10.39Z"/><path class="cls-2" d="M310.91,376.13v8.15c0,.35-1.22,6.2-1.4,6.47-.82,1.25-2.38-.18-2.53,0-.44.51-.2,9.23-2.24,11.54-.67.76-1.57,1.2-2.58,1.36-2.59.4-15.14.24-16.58-1.49-1.76-2.12-1.54-10.62-2.22-11.41-.11-.13-1.56,1.55-2.53-1.12-.54-1.49-1.97-11.82-1.4-12.37.52-.51,4.74.55,5.88.59,8.64.31,17.1-.36,25.6-1.71Z"/><path class="cls-7" d="M287.02,220.39c-.45-.13-1.16-1.35-.84-1.68.13-.13,1.88.05,3.07-1.71,2.55-3.77.51-8.75.3-12.91,2.39.93,16.7-2.3,17.43-1.69.68.57-1.84,2.63-2.24,3.09,2.5.62,3.32-2.5,6.05-3.51,1.98-.74,4.76-.99,6.88-1.26-.35.37-3.15,3.69-.84,3.37,10.81-4.37,24.98-13.16,34.31-1.71,3.98,4.88-1.93.46-3.52.14-5.53-1.13-23.13,9.06-29.4,11.39-5.72,2.13-7.8,1.18-13.18,1.41-2.18.09-5.42,1.9-6.74,1.72-1.84-.25-2.92-2.98-4.25-3.96-.13,1.21-.05,2.19.32,3.35.6,1.91,2.97,1.95,3.05,3.95-2.75-.5-8.03.68-10.4,0ZM315.13,204.09v.56c.37-.19.37-.37,0-.56Z"/><path class="cls-23" d="M367.13,178.79v1.12c-56.73,17.98-120.28,17.41-178.23,4.79-12.72-2.77-25.09-7.72-38.23-8.16.37-1.14,2.24-1.39,3.24-1.53,7.29-1.05,18.87,3.64,26.44,5.31,63.07,13.89,124.12,15.01,186.78-1.52Z"/><path class="cls-6" d="M200.15,369.38l-7.6,7.85c-2.49,3.31-25.1,17.42-25.5,18.96-.6,2.34,13.28,24.48,15.58,28.1,1.03,1.63,1.81,3.25,2.97,4.77.15.19,2.31,1.4.78,1.6-1.85.24-3.68-1.64-5.07-2.8-7.51-6.28-17.4-18.78-22.08-27.39-2.88-5.31-4.91-6.53.84-10.18,6.44-4.08,14.87-8.31,21.72-12.01,4.22-2.28,11.71-6.99,15.71-8.47.89-.33,1.69-.57,2.66-.43Z"/><path class="cls-6" d="M265.93,205.77c-.4-.59-2.15-2.63-.32-2.21,1.41.32,8.96,4.84,9.31,4.46,1.38-1.49-2.68-2.53-2.24-3.93,2.86,1.33,14.29-.27,15.78.8,1.89,1.36,1.43,12.44-3.74,12.7-1.48.07-2.31-1.4-3.91-1.67-4.47-.73-9.08.58-13.99-.63-8.26-2.02-22.88-10.85-30.55-11.07-1.84-.05-8.63,3.58-9.44,4.91-.32.52,2.13,4.43,1.44,5.07-1.67,1.57-6.67-3.19-4.14-4.98,3.05-2.16,9.09-7.68,12.3-7.95,2.97-.25,10.73.73,13.98,1.2,5.26.76,10.29,2.51,15.53,3.3Z"/><path class="cls-11" d="M319.9,306.98c.8.86-.26.97-.72,1.26-1.15.73-3.24,1.4-4.62,1.55-12.7-.82-26.22,1.67-38.82.58-4.77-.41-9.53-3.38-13.19-6.2,6.91-.04,15.07-4.29,21.68-4.52,2.97-.1,6.33,1.62,8.97,1.6,4.07-.03,9.91-3.69,14.71-.55l11.99,6.29Z"/><path class="cls-2" d="M304.17,317.66c.19-.2,4.27,1.03,5.35,1.11,3.45.27,6.64-.47,9.67-2.12,1.66-.91,5.99-5.07,7.22-5.19,1.03-.1,7.82,2.82,8.03,3.72.2.85-1.39,5.81-1.88,6.97-1.71,4.03-9.03,12.57-13.56,12.92-6.66.52-15.72-16.49-14.83-17.41Z"/><path class="cls-20" d="M283.08,318.78c.24-.01,1.69-1.47,1.34.21-1.31,6.28-6.99,17.74-14.97,15.1-7.2-2.38-13.93-14.92-13.03-22.29.19-1.53.76-4.16,2.39-3.62.83.28,7.06,6.13,8.96,7.35,1.07.69,5.44,3.25,6.31,3.25,2.96,0,6.06.17,9,0Z"/><path class="cls-21" d="M418.23,394.75c-.28-.44-7.69-4.29-9.1-5.23-6.31-4.22-13.69-9.36-19.24-14.5-.68-.63-5.39-5.01-4.76-5.63,4.95,2.36,41.44,21.13,42.09,23.45.48,1.7-2.08,5.26-3.07,6.86-4.9,7.98-11.93,15.95-19.07,21.96,3.07-8.22,9.96-16.12,12.78-24.32.25-.72.79-1.93.37-2.59Z"/><path class="cls-6" d="M395.25,367.12c-1.07-1.22,2.17-1.4,2.69-1.5,6.62-1.32,13.65-1.54,20.35-2.42,1.52-1.22-18.59-24.3-17.42-25.29.27-.23,6.21-.19,7.06.53l18.79,22.25c2.11,3.38,4.93,5.39-.42,6.86-5.04,1.38-16.98,2.82-22.31,2.99-1.07.03-2.22.11-3.26-.16-.31-.08-5.26-3.01-5.47-3.25Z"/><path class="cls-11" d="M225.44,262c.07.06.25,1.1.82,1.69,3.83,4,10.32,9.11,11.96,14.49,1.17,3.82,1.62,9.49,2.57,13.73.29,1.3,1.41,3.04,1.38,4-.04,1.22-1.96,4.88-2.51,6.45-.41,1.16-1.1,5.52-1.29,5.74-.8.93-1-.32-1.26-.73-6.42-9.89-11.75-31.08-12.79-42.86-.08-.89-.23-3.66,1.1-2.52Z"/><path class="cls-27" d="M259.19,263.68c-.15,1.61,1.97,1.41,2.13,3.19.11,1.24-1.27,1.97-1.49,2.88-.19.77.49,1.17.48,1.24-.18,1.55-1.06,1.81-1.69,2.81-1.22-.22-2.82.95-3.4,1.94-.85,1.44-.28,2.22-.53,3.12-1.03,3.58-2.46,7.08-6.18,8.43-.35.13-1.16-.14-1.81.13-1.57.66-2.96,2.06-4.93,2.12-1.38-8.61-.85-13.49-.56-21.93,1.67.49,1.79-2.12,0-1.69-.03-.85-.77-1.83-.56-2.81,5.86,2.07,12.56,1.99,18.55.56Z"/><path class="cls-20" d="M345.2,262c-.2,7.11,1.2,14.02,0,21.09-.13.79.39.92-.85.86-1.69-.09-3.28-1.54-5.26-1.22-.12-1.67-.74-2.41-1.75-3.6-4.06-4.79-15.08-9.71-18.02-15.15-2.39-4.43,2.28-1.48,4.4-1.03,8.04,1.71,13.58,1.11,21.47-.96Z"/><path class="cls-18" d="M405.92,220.4c.96.85-3.7,3.97-4.23,4.48-8.67,8.33-10.92,16.92-2.53,26.73,6.11,7.14,20.78,11.03,21.35,21.43.08,1.49-1.14,6.26-2.78,4.7-.21-.2.12-4.52-.13-5.78-1.26-6.2-11.95-10.34-16.69-13.67-8.03-5.65-17.69-17.37-10.4-27.17,1.66-2.23,13.13-12.75,15.41-10.73Z"/><path class="cls-25" d="M212.52,223.2c-.83.94-4.72-4.99-5.33-5.63-2.08-2.17-4.98-5.14-4.18.24.64,4.28,3.81,8.06,5.02,12.13,1.88.38,1.3-1.78,1.39-2.8,2.43,1.68.65,4.13.91,6.95.36,3.99,2.98,8.21,6.71,9.72-.8,1.9,1.01,13.18.54,13.68-1.51,1.6-4.18-3.84-4.59-4.68-3.96-8.16-8.96-22.71-11.72-31.57-1.1-3.52-4.35-15.72,3.35-12.92,1.57.57,6.44,6.06,7.02,7.6.35.91,1.26,6.83.87,7.27Z"/><path class="cls-18" d="M286.73,407.62c.47.51-3.95,9.45-4.51,10.95-3.74,9.93-7.06,22.32-8.83,32.78-.28,1.64-.89,10.95-1.29,11.36-.17.18-4.29.21-4.81-.52-1.27-1.81,2.89-20.95,3.85-24.34,2.26-8.01,7.89-22.68,13.35-28.82.35-.39,1.69-2,2.23-1.42Z"/><path class="cls-10" d="M318.22,461.59c-.35-.38-1.01-8.66-1.29-10.24-1.86-10.42-5.24-21.7-8.82-31.66-.55-1.52-4.93-11.07-4.51-11.51.75-.79,3.19,2.83,3.6,3.42,9.41,13.4,14.08,31.93,16.1,48,.42,1.34-4.89,2.2-5.09,1.99Z"/><path class="cls-10" d="M364.88,255.81v-12.65c0-.54,5.23-4.35,5.46-9.09.07-1.52-1.51-3.37-.98-5.41.06-.24,2.31-2.26,3.09-3.79.68-1.33,4.16-11.1,1.7-11.22-2.1-.1-6.39,8.64-7.59,7.29-.22-.25-.34-5.93-.16-6.57.78-2.67,4.64-7.49,7.76-7.43,5.38.11,3.47,9.58,2.81,12.89-1.67,8.52-5.21,22.66-8.02,30.77-.73,2.11-1.17,5.48-4.08,5.19Z"/><path class="cls-5" d="M408.06,304.29c5.85-.59,10.94,4.96,11.79,10.41,1.45,9.31-6.72,21.37-16.76,16.21s-6.68-25.44,4.98-26.62ZM404.8,309.79c.57-.57,4.06-1.51,4.5-2.81-1.84-.22-3.5.04-4.89,1.3-.26.24-.1.87-.17.94-4.62,4.36-6.73,10.7-2.54,16.32,9.12,12.25,22.02-7.47,13.48-15.16-5.82-5.23-14.44,4.66-9.5,11.75l3.63,3.39c-6.04.83-7.61-6.08-6.62-10.84.09-.43,1.93-4.72,2.12-4.9Z"/><path class="cls-21" d="M292.35,344.64l-1.68-3.37c.07,1.74-1.23,13.47-1.7,14.05-.41.52-1.38-2.82-2.24-1.68-.39.51.5,4.14-.28,5.05-4.53-4.53-5.47-10.96-4.79-17.15s5.32-9.42,8.16-14.33l.83,2.8c.54-1.68,1.26-4.06,2.81-5.06-1.22,6.5-1.25,13.06-1.12,19.67Z"/><path class="cls-18" d="M295.73,326.09c1.71-2.13,1.65,5.63,1.97,5.63.25,0,.76-3.67,1.49-4.7,1.83-2.59,1.43.06,1.86,1.35.8,2.44,2.22,4.68,2.57,7.28,1-.01.32-3.92,1.41-1.69.41.83,2.31,11.86,1.95,12.38-.04.05-1.08-.62-1.12-.57-.87,1.13-.95,13.35-5.06,15.18v-8.71c0-4.05-5.06-10.98-5.06-14.62,0-1.63-.36-11.08,0-11.53Z"/><path class="cls-7" d="M358.7,258.06c.22.27.09,6.03.03,7.05-.22,3.28-2.88,18.64-4.46,20.72-.48.62-7.62-1.07-7.89-1.38-.44-.51,1.66-12.07,2.07-13.31.98-2.92,6.75-9.5,8.97-12.37.26-.34.52-1.65,1.28-.71Z"/><path class="cls-21" d="M362.03,191.76c.32.28,2.13,7.68,2.18,8.25.07.8-5.49,14.25-6.13,14.72-.18.13-4.28-.38-4.45-.53-.32-.28,1.58-4.35,1.67-5.39.06-.73-.64-1.83-.55-1.91.2-.17,1.52.17,1.69,0,.77-.76-5.11-12.11-4.5-12.92.31-.42,9.53-2.69,10.08-2.21Z"/><path class="cls-21" d="M222.64,143.93c.44,1.99-2.29.76-3.24,1.82-1.7,1.91-1.48,23.65-2.38,24.6-.25.27-7.06.26-7.31,0-.92-.93,4.38-22.64,4.58-25.78l8.35-.64Z"/><path class="cls-19" d="M172.04,330.59c-4.29,4.07-10.99,7.14-16.49,9.65-6.38,2.91-17.72,7.8-24.42,8.75-1.44.2-8.78.63-5.6-1.11,14.93-4.59,28.96-12.28,43.86-16.85.89-.27,1.68-.62,2.64-.44Z"/><path class="cls-8" d="M274.93,377.25l-19.95-1.73c-1.12,0-7.92.84-8.16,1.18-.8,1.13,5.08,17.02,6.09,19.48.54,1.32,2.75,4.74,2.83,5.62.13,1.38-1.69,1.69-2.75,1.04-2.4-1.48-8.36-21.94-8.39-25.4-.02-2.69,4.24-3.11,6.5-3.5,6.21-1.07,16.52-.67,22.42,1.63.87.34,1.63.47,1.41,1.68Z"/><path class="cls-8" d="M345.77,375.01c1.37,3.56-5.14,27.01-6.81,28.03-.93.56-2.67.04-2.77-1.33-.07-.96,4.52-12.03,5.24-14.46.43-1.44,2.97-10.61,2.64-11.08-1.6-2.31-23.55-.02-27.24,1.1-.51-.02-.35-1.63-.29-1.69.45-.46,11.16-2.19,12.63-2.28,5.83-.35,10.97.59,16.61,1.71Z"/><path class="cls-10" d="M358.06,138.39c.61,2.88,8.28,22.09,7.39,22.97-.18.18-4.82.11-5-.06-.78-.68-4.62-17.1-5.65-19.93-.4-1.08-.81-2.02-1.71-2.79l4.98-.2Z"/><path class="cls-8" d="M450.91,348.02c.91.73-.06,1.02-.84,1.12-4.71.6-9.68-1.3-14.08-2.8-5.19-1.77-11.73-4.51-16.6-7.01-1.11-.57-5.23-2.62-5.81-3.08-.53-.42-.47-1.59-.35-1.72,1.36-1.47,32.48,14.51,37.67,13.49Z"/><path class="cls-25" d="M258.06,281.11c-.72-.65,4.72-6,5.06-7.02,1.45-.43,4.65-4.61,5.41-4.74,1.04-.18,3.97,4.86,5.82,5.3-1.9.92-15.64,7.05-16.29,6.46Z"/><path class="cls-10" d="M220.95,215.33c-.37.34-1.9-.06-2.52-.57-.43-.35-4.9-8.77-5.1-9.54-.23-.91.58-6.99.9-7.29.21-.2,2.4-.08,2.95.09,3.26.96,1.35,9.61,1.62,11.82.15,1.28,2.87,4.81,2.15,5.49Z"/><path class="cls-25" d="M282.24,253c-.41.76-1.56,3.13-2.04,3.3-1.53.53-4.71-.19-6.64.11-1.07.17-3.86,2.03-4.25,1.65-.72-.7,5.17-5.92,5.91-6.74.78-.87,3.89-5.63,4.49-5.62,1.44.03,2.55,5.87,2.53,7.3Z"/><path class="cls-22" d="M398.06,302.48c.89.21,2.09.35,2.81.84-.96,1.02-1.74,3.8-3.37,3.66-.03,0,.1-.47-.29-.56-.86-.2-1.99,2.16-2.46,3.16-2.45,5.16-3.02,13.56-.63,18.77-.2.38-1.05.47-1.12.56.13-.14-.44-2.81-.56-3.37-1.31-6.04-2.08-10.45.82-16.33,1.34-2.72,3.67-4.09,4.8-6.73Z"/><path class="cls-14" d="M274.37,352.8c.19,1.39,1.47,3.52,1.69,5.05-.42.84-.98.1-1.43-.26-4.79-3.82-4.67-11.65-.27-15.76.33,3.44-.45,7.63,0,10.96Z"/><path class="cls-6" d="M259.19,263.68c1.23-.29,6.49-3.06,7.31-2.25,1.67,1.67-3.83,9.33-6.18,9.56,0-.07-.68-.47-.48-1.24.23-.92,1.61-1.65,1.49-2.88-.16-1.78-2.29-1.58-2.13-3.19Z"/><path class="cls-8" d="M246.81,310.91c.29.32-.55,3.26-.58,4.19-.12,3.2.41,7.11.02,10.15-.1.78-.34,1.68-1.12.83-.47-.51-2.48-9.75-2.26-10.94.15-.81,3.33-4.91,3.94-4.24Z"/><path class="cls-9" d="M397.49,306.97c-3.65,6.43-5.18,13.23-1.97,20.24l3.09,4.5c-.82.7-4.18-2.69-4.49-3.37-2.39-5.2-1.82-13.61.63-18.77.47-.99,1.6-3.35,2.46-3.16.39.09.26.55.29.56Z"/><path class="cls-14" d="M251.87,294.05c.52.56-5.37,14.94-7.3,12.93-.27-.28,1.9-6.59,2.35-7.49.36-.71,4.14-6.33,4.96-5.44Z"/><path class="cls-22" d="M297.42,276.61c-.49.31-1.59,1.1-1.69,1.12-.74.18-3.59.11-4.5,0-.36-.04-.89.09-1.12,0-.27-.11-4.23-2.94-4.77-3.39-.71-.59-1.6-1.38-1.98-2.23,2.23-.29,3.28,1.74,5.05,2.53,4.05,1.79,8.49.91,12.1-1.4-.24,1.21-2.13,2.75-3.1,3.36Z"/><path class="cls-5" d="M319.34,282.81c.82.88-.28.96-.72,1.25-3.49,2.29-10.05-2.34-14.45.15.87-3.93,14.18-2.45,15.17-1.4Z"/><path class="cls-8" d="M343.51,328.9l-2.8-11.8c6.47.44,3.08,7.5,2.8,11.8Z"/><path class="cls-24" d="M245.97,260.31c-1.85-.21-6.02-1.52-7.88-2.24-.27-.11-3-1.07-2.23-1.7,6.71,2.51,13.94,2.99,21.08,2.82.04.36-.75,1.12-.84,1.12-3.14,0-7.13.34-10.12,0Z"/><path class="cls-5" d="M321.03,284.49c.34.33-2.66,4.48-2.99,5.72-.42,1.61-.21,2.69-.39,4.12-.36,2.92-2.15-1.55-2.22-2.86-.13-2.6,4.25-8.29,5.59-6.98Z"/><path class="cls-9" d="M393,328.9c-.09.13.29.99-.37,1.15-2.01.5-12.66-4.08-15.37-5.09l.56-.56c.47.16,1.45-.02,2.25.26,1.67.57,12.43,4.76,12.93,4.24Z"/><path class="cls-6" d="M248.5,287.3l-5.91,7.31c-1.03-1.49-.59-3.48-.84-5.06,1.98-.05,3.37-1.46,4.93-2.12.65-.27,1.46,0,1.81-.13Z"/><path class="cls-24" d="M342.39,257.5c.13.81-.99.78-1.57.94-5.57,1.59-11.93,1.29-17.54.17-.15-.94,1.37-.61,1.98-.58,2.9.17,5.25.8,8.41.58,2.84-.2,5.76-1.48,8.72-1.11Z"/><path class="cls-15" d="M259.18,298.54c-2.4.56.2-3.26.68-4.1,1.84-3.21,4.22-5.76,6.92-8.25-1.74,4.52-5.8,7.78-7.61,12.35Z"/><path class="cls-15" d="M367.13,178.79c3.49-.92,6.95-2.91,10.68-2.81-2.73,2.35-7.3,2.86-10.68,3.93v-1.12Z"/><path class="cls-15" d="M377.82,324.4l-.56.56-11.24-4.49c3.53-.09,6.72,1.58,9.96,2.7.81.28,1.53,1.13,1.84,1.23Z"/><path class="cls-15" d="M268.18,351.95c-.84-.09-1.24-2.09-1.42-2.79-.79-3.09-.82-5.45.31-8.45l1.11,11.24Z"/><path class="cls-6" d="M258.62,273.8c-1.1,1.74-2.26,3.94-3.94,5.06.26-.9-.31-1.68.53-3.12.58-.99,2.18-2.17,3.4-1.94Z"/><path class="cls-2" d="M295.73,277.74v.56c-1.69.18-4.98,1.59-4.5-.56.9.11,3.76.18,4.5,0Z"/><path class="cls-8" d="M297.42,276.61v1.69c-1.7.48-1.49-.02-1.69,0v-.56c.1-.02,1.2-.82,1.69-1.12Z"/><path class="cls-6" d="M241.19,265.93c1.79-.44,1.67,2.18,0,1.69.02-.56.02-1.13,0-1.69Z"/><path class="cls-19" d="M314.27,340.71c.45.43,2.8,7.66,2.82,8.71.02,2.07-.74,5.75-2.53,7.02l.28-5.05c-1-.06-.89,2.61-2.25,1.39.49-2.58.81-5.34.92-7.96.01-.31-1.04-5.85.77-4.12Z"/><path class="cls-19" d="M313.16,273.8c-.21-.19.06-1.19.56-1.4,1.32-.48,2.5-4.42,3.64-4.24,1.91.3,9.57,7.1,11.53,8.75l-15.73-3.1Z"/><path class="cls-18" d="M302.48,253.56c-.46-.67-.59-.69-1.12-1.69-.21-1.16.96-5.96,2.52-5.62.49.11,4.22,5.3,5.05,6.2,1.45,1.58,4.34,2.42,4.53,5.02-1.38-.65-3.58-1.69-5.07-1.69-1.35,0-3.25,1.24-3.89,1.1-.48-.11-1.42-2.46-2.01-3.33Z"/><path class="cls-24" d="M234.73,255.81c.37.19.37.37,0,.56v-.56Z"/><path class="cls-22" d="M442.46,197.9c-.9-.3-1.09-2.57-1.3-3.47-1.71-7.33-2.54-14.61-6.57-21.26,1.31-.19,1.78.98,2.36,1.85,3.76,5.67,6.9,16.19,5.51,22.88Z"/><path class="cls-1" d="M253.93,112.24c-5.62,5.62-2.9.31-2.62-2.89.7-7.91-5.48-10.4-6.14-16.36-.75-6.8,6.04-8.05,10.38-3.61,6.04,6.16,4.08,17.16-1.63,22.87Z"/><path class="cls-26" d="M319.9,107.94c-.43.39-2.79-.43-3.52-.69-6.78-2.4-12.47-11.1-8.65-17.95,2.24-4.01,4.53-3.48,8.36-2.56,11.4,2.75.99,4.78.42,11.36-.15,1.68.31,3.75.89,5.32.35.96,2.83,4.22,2.51,4.51Z"/><path class="cls-4" d="M315.13,204.09c.37.19.37.37,0,.56v-.56Z"/><path class="cls-26" d="M404.8,309.79c-.19.19-2.04,4.48-2.12,4.9-.99,4.76.57,11.66,6.62,10.84l-3.63-3.39c-4.93-7.09,3.69-16.99,9.5-11.75,8.55,7.69-4.35,27.41-13.48,15.16-4.19-5.62-2.07-11.96,2.54-16.32l.56.56Z"/><path class="cls-22" d="M404.24,309.22c.07-.07-.09-.7.17-.94,1.38-1.27,3.05-1.52,4.89-1.3-.44,1.29-3.92,2.24-4.5,2.81l-.56-.56Z"/><path class="cls-16" d="M519.8,275.88v-103.86l11.95-15.41h43.01v94.28h32.9v25.44l-12.69,14.52h-75.18v-14.96ZM603.98,271.84v-16.46h-32.9v-94.28h-35.62v110.74h68.52Z"/><path class="cls-16" d="M600.65,258.82v-87.1l11.95-15.41h54.96l40.3,20.5v99.52l-12.69,14.52h-55.09l-39.44-20.05v-11.97ZM653.15,271.84h51.02v-92.03l-37.34-19.01h-50.53v92.33l36.85,18.71ZM652.04,177.26h15.9v77.97h-15.9v-77.97Z"/><path class="cls-16" d="M700.84,254.03v-82.31l11.95-15.41h55.46l40.79,21.1v50.13l-12.69,14.52h-39.93v8.83h52.62v25.44l-12.69,14.52h-57.8l-37.71-21.4v-15.41ZM751.61,271.84h53.73v-16.46h-52.62v-77.97h15.16v45.64h37.46v-42.65l-37.83-19.6h-51.02v90.99l35.12,20.05Z"/><path class="cls-16" d="M802.02,274.83v-102.96l11.95-15.41h42.64v11.22l8.5-11.22h44v71.38l-5.91,6.28,5.91,3.89v38.31l-12.69,14.52h-43.26v-11.07l-9.24,11.07h-41.9v-16.01ZM852.91,271.99v-39.51h15.9v39.36h36.6v-31.13l-22.68-14.82.49-2.54h22.18v-62.4h-36.6v54.77h-15.9v-54.77h-35.25v111.04h35.25Z"/><path class="cls-16" d="M519.8,305.59h53.24l37.34,20.05v93.68h-90.58v-113.73ZM571.8,400.02v-74.97h-13.43v74.97h13.43Z"/><path class="cls-16" d="M620.23,305.59h90.33v113.73h-90.33v-113.73ZM671.87,399.72v-74.67h-13.43v74.67h13.43Z"/><path class="cls-16" d="M720.43,305.59h90.83v113.73h-38.57v-94.28h-13.56v94.28h-38.7v-113.73Z"/></svg>
